<?xml version="1.0" encoding="UTF-8" standalone="no"?>
<!-- Generator: Adobe Illustrator 15.0.2, SVG Export Plug-In . SVG Version: 6.00 Build 0)  -->

<svg
   xmlns:dc="http://purl.org/dc/elements/1.1/"
   xmlns:cc="http://creativecommons.org/ns#"
   xmlns:rdf="http://www.w3.org/1999/02/22-rdf-syntax-ns#"
   xmlns:svg="http://www.w3.org/2000/svg"
   xmlns="http://www.w3.org/2000/svg"
   xmlns:sodipodi="http://sodipodi.sourceforge.net/DTD/sodipodi-0.dtd"
   xmlns:inkscape="http://www.inkscape.org/namespaces/inkscape"
   version="1.1"
   id="Layer_1"
   x="0px"
   y="0px"
   width="512px"
   height="512px"
   viewBox="0 0 512 512"
   enable-background="new 0 0 512 512"
   xml:space="preserve"
   inkscape:version="0.91 r13725"
   sodipodi:docname="icon_images.svg"
   inkscape:export-filename="D:\source\ImageView\ImageView\icon_images.png"
   inkscape:export-xdpi="8.4375"
   inkscape:export-ydpi="8.4375"><metadata
     id="metadata11"><rdf:RDF><cc:Work
         rdf:about=""><dc:format>image/svg+xml</dc:format><dc:type
           rdf:resource="http://purl.org/dc/dcmitype/StillImage" /></cc:Work></rdf:RDF></metadata><defs
     id="defs9" /><sodipodi:namedview
     pagecolor="#ffffff"
     bordercolor="#666666"
     borderopacity="1"
     objecttolerance="10"
     gridtolerance="10"
     guidetolerance="10"
     inkscape:pageopacity="0"
     inkscape:pageshadow="2"
     inkscape:window-width="1920"
     inkscape:window-height="1017"
     id="namedview7"
     showgrid="true"
     inkscape:snap-grids="true"
     inkscape:snap-page="true"
     inkscape:zoom="1.3037281"
     inkscape:cx="209.72339"
     inkscape:cy="240.5854"
     inkscape:window-x="-8"
     inkscape:window-y="-8"
     inkscape:window-maximized="1"
     inkscape:current-layer="Layer_1"><inkscape:grid
       type="xygrid"
       id="grid4141" /></sodipodi:namedview><rect
     style="fill:#ffffff;fill-opacity:1;stroke:none;stroke-width:12.43351555;stroke-miterlimit:4;stroke-dasharray:none;stroke-opacity:1"
     id="rect4143"
     width="400.40585"
     height="364.12662"
     x="84.966125"
     y="119.97706" /><rect
     style="fill:#ffffff;fill-opacity:1;stroke:none;stroke-width:33.41794586;stroke-miterlimit:4;stroke-dasharray:none;stroke-opacity:1"
     id="rect4145"
     width="401.06482"
     height="363.45166"
     x="24.067255"
     y="26.777098" /><g
     id="g3"><path
       d="m 475.57069,99.354824 -31.35487,0 0,-62.703179 c 0,-17.30608 -14.05481,-31.351595 -31.35485,-31.351595 l -376.258239,0 c -17.30788,0 -31.3548537,14.045515 -31.3548537,31.351595 l 0,344.867525 c 0,17.29825 14.0469737,31.35159 31.3548537,31.35159 l 31.354852,0 0,62.70318 c 0,17.29824 14.046977,31.35159 31.354845,31.35159 l 376.258262,0 c 17.30003,0 31.35484,-14.05335 31.35484,-31.35159 l 0,-344.86753 c 0,-17.30607 -14.05481,-31.351586 -31.35484,-31.351586 z M 36.602731,381.51917 l 0,-344.867525 376.258239,0 0,344.867525 -376.258239,0 z m 438.967959,94.05477 -376.258262,0 0,-62.70318 31.354862,0 0,31.35159 31.35486,0 250.83882,0 31.35485,0 0,-31.35159 0,-31.35159 0,-94.05478 0,-156.75798 31.35487,0 0,344.86753 z M 237.11799,133.65348 c 0,24.08781 19.52819,43.61399 43.61852,43.61399 24.0825,0 43.60286,-19.52618 43.60286,-43.61399 l 0,0 c 0,-24.08782 -19.52036,-43.613993 -43.60286,-43.613993 -24.0913,0 -43.61852,19.526173 -43.61852,43.613993 l 0,0 z m -75.09584,28.40452 -94.064567,62.70321 0,62.70318 0,31.3516 0,31.35157 31.354845,0 250.838832,0 31.35486,0 0,-31.35157 0,-31.3516 0,-94.05478 -125.41941,62.70319 -94.06456,-94.0548 z"
       id="path5"
       style="fill:#000000;fill-opacity:1;stroke:#ffffff;stroke-width:10.06222534;stroke-miterlimit:4;stroke-dasharray:none;stroke-opacity:1"
       inkscape:connector-curvature="0" /></g></svg>